<svg version="1.1" id="Layer_1" xmlns="http://www.w3.org/2000/svg" xmlns:xlink="http://www.w3.org/1999/xlink" x="0px" y="0px"
	 width="100%" viewBox="46 98 695 229" enable-background="new 0 0 795 401" xml:space="preserve">
<path fill="#53AD3E" opacity="1.000000" stroke="none" 
	d="
M188.383987,163.006027 
	C183.369904,157.946609 178.192108,153.037766 173.373093,147.798920 
	C160.074326,133.341599 146.920303,118.751022 133.737411,104.187469 
	C133.231445,103.628494 133.018738,102.804047 132.507568,101.778778 
	C133.570602,101.483459 134.321838,101.092690 135.072815,101.093201 
	C148.066940,101.102036 161.068817,100.934212 174.049088,101.382011 
	C176.880005,101.479675 180.239120,103.191772 182.327393,105.218910 
	C199.300842,121.695686 216.088837,138.365753 232.749023,155.159760 
	C234.577347,157.002777 235.244308,159.997910 235.835876,162.713165 
	C220.150986,162.970917 205.080154,162.974167 189.738037,162.973541 
	C189.105820,162.981766 188.744904,162.993896 188.383987,163.006027 
z"/>
<path fill="#0E2F52" opacity="1.000000" stroke="none" 
	d="
M385.740234,194.481995 
	C380.003662,178.313751 387.098450,159.567963 406.390259,156.358566 
	C414.701874,154.975845 423.334076,154.708893 431.102448,159.291672 
	C439.914673,164.490280 445.212097,171.678207 444.044006,182.540756 
	C443.764435,185.140961 444.544281,187.865204 444.196472,190.446091 
	C443.112213,198.492035 439.085052,204.793274 432.033722,208.951813 
	C418.064606,217.190186 397.341736,213.863297 388.985718,201.951065 
	C387.507599,199.843903 386.781342,197.209335 385.740234,194.481995 
M400.611603,192.478622 
	C400.899963,193.433685 401.112976,194.419556 401.488892,195.338806 
	C404.077148,201.667664 408.446686,204.609863 414.923920,204.434967 
	C420.793427,204.276474 424.733063,201.309967 427.000641,194.984680 
	C429.434692,188.195084 429.536499,181.291077 427.213287,174.442245 
	C424.895813,167.610352 420.151733,164.012390 414.069641,164.265442 
	C407.824707,164.525238 402.209839,168.683273 401.001190,175.347961 
	C400.041138,180.641571 400.562714,186.203873 400.611603,192.478622 
z"/>
<path fill="#0F3356" opacity="1.000000" stroke="none" 
	d="
M264.062408,135.004333 
	C263.164795,131.425827 265.627106,131.765625 267.823242,131.765381 
	C283.246063,131.763657 298.668884,131.755600 314.542847,132.123352 
	C314.993958,132.497116 314.994873,132.993179 314.989655,133.443604 
	C314.984436,136.124268 314.984436,138.354477 314.984436,141.032379 
	C304.277679,141.032379 294.395416,140.956268 284.516876,141.112930 
	C283.003448,141.136932 281.507050,142.235199 280.002777,142.836609 
	C280.002777,150.093765 280.002777,157.350891 280.002777,165.276001 
	C290.107819,165.276001 299.834625,165.276001 309.434570,165.639038 
	C300.227203,166.002075 291.146759,166.002075 282.066284,166.002075 
	C289.790375,166.985474 297.518616,167.053558 305.243896,166.932861 
	C306.962708,166.906021 308.671082,166.214447 310.384277,165.828918 
	C310.684387,169.011917 310.984497,172.194931 311.355743,176.132187 
	C300.874786,176.132187 291.005524,176.132187 280.270813,176.165649 
	C278.980042,176.645142 278.190765,177.085449 278.183655,177.538025 
	C278.072601,184.624619 277.999573,191.713913 278.124451,198.798935 
	C278.137207,199.522537 279.476471,200.222748 280.200195,200.933823 
	C292.681152,201.015778 305.162109,201.097733 317.419861,201.677063 
	C316.824799,202.673782 316.072418,203.231918 316.139099,203.663452 
	C316.934326,208.808914 313.954132,209.124969 309.963104,209.068756 
	C297.715057,208.896210 285.462799,208.967773 273.212860,209.046417 
	C271.486694,209.057495 269.764130,209.637100 267.699005,209.964600 
	C266.903351,209.977890 266.448639,209.980118 265.996643,209.515488 
	C265.999176,185.517426 266.003326,161.986221 265.988312,138.455017 
	C265.987366,137.007599 265.835358,135.560272 265.753632,134.112885 
	C265.536163,134.237946 265.288330,134.331512 265.113159,134.500443 
	C265.015900,134.594238 265.039886,134.813766 264.772430,134.980560 
	C264.535645,134.984482 264.062408,135.004333 264.062408,135.004333 
M291.370300,202.006714 
	C287.927246,202.006714 284.484192,202.006714 281.041138,202.006714 
	C281.048981,202.223587 281.056793,202.440445 281.064636,202.657318 
	C286.616272,202.657318 292.167908,202.657318 297.719543,202.657318 
	C297.720978,202.440445 297.722443,202.223587 297.723907,202.006714 
	C295.914093,202.006714 294.104309,202.006714 291.370300,202.006714 
M311.733032,202.989944 
	C312.000397,202.709030 312.267731,202.428131 312.535095,202.147217 
	C312.378601,202.114197 312.222229,202.052963 312.065643,202.052444 
	C310.091095,202.045914 308.116577,202.048157 306.142029,202.048157 
	C306.150452,202.364883 306.158875,202.681610 306.167297,202.998337 
	C307.775909,202.998337 309.384552,202.998337 311.733032,202.989944 
z"/>
<path fill="#0E2E52" opacity="1.000000" stroke="none" 
	d="
M491.331482,239.858841 
	C488.977081,237.684860 487.017487,235.508865 484.405792,232.608704 
	C493.145203,228.791992 498.817139,223.459717 502.494537,216.036026 
	C503.765076,213.471146 503.653595,211.619690 502.360596,208.821152 
	C494.615936,192.058823 487.335022,175.082138 479.922241,158.166992 
	C479.811279,157.913757 480.000854,157.528809 480.096313,156.902634 
	C484.357971,156.902634 488.696472,156.607483 492.952637,157.070023 
	C494.355713,157.222519 496.159973,159.095505 496.736542,160.585785 
	C501.358032,172.531433 505.728210,184.574326 510.179199,196.586014 
	C510.455750,197.332352 510.764984,198.066589 511.252136,199.292374 
	C515.570129,186.881439 519.981995,175.125183 523.676025,163.147552 
	C525.248352,158.049500 527.688477,156.048141 532.869080,156.838394 
	C535.135010,157.184052 537.497498,156.896515 540.535522,156.896515 
	C537.437805,164.651077 534.619690,171.884201 531.665222,179.061188 
	C526.787903,190.909027 522.224792,202.911438 516.739685,214.474121 
	C513.573608,221.148148 509.525909,227.691467 504.596069,233.135406 
	C501.548401,236.500854 496.098022,237.690445 491.331482,239.858841 
z"/>
<path fill="#014DA6" opacity="1.000000" stroke="none" 
	d="
M97.010094,132.841660 
	C88.125771,134.014709 88.124069,134.014709 88.135277,143.342880 
	C88.157860,162.139816 88.190567,180.936752 88.192184,199.733688 
	C88.192329,201.379578 87.993904,203.025482 87.450027,204.448181 
	C87.009293,203.819733 87.006233,203.414474 87.002548,202.539612 
	C87.001923,180.099030 87.001923,158.128098 87.001923,136.157150 
	C86.662430,136.153152 86.322929,136.149139 85.983437,136.145142 
	C85.983437,139.097977 85.983437,142.050827 85.631821,145.040466 
	C76.116180,149.609726 68.235474,155.442993 63.275623,164.815628 
	C62.380623,166.506897 59.145935,166.960037 56.992294,167.517700 
	C56.994602,163.221558 56.904530,159.389801 57.017902,155.564072 
	C57.211521,149.030014 56.344517,142.845322 61.283623,136.665802 
	C68.251831,127.947594 73.904778,118.328339 85.153870,114.350555 
	C85.754318,114.138237 86.345154,113.706261 86.773026,113.227043 
	C93.857986,105.291702 102.781876,102.333893 113.094925,104.102791 
	C117.161873,104.800346 121.028000,106.668777 124.829636,108.315979 
	C123.089516,109.470139 121.595436,110.662750 119.906372,111.097061 
	C109.832275,113.687447 107.845932,122.995163 102.232719,130.997971 
	C110.032578,130.997971 116.489609,130.916656 122.942009,131.053787 
	C124.603203,131.089081 126.249794,131.811707 127.903099,132.218567 
	C118.236038,132.433289 108.568977,132.647995 98.336136,132.666504 
	C97.516930,132.594086 97.263512,132.717880 97.010094,132.841660 
z"/>
<path fill="#0E2E52" opacity="1.000000" stroke="none" 
	d="
M323.535828,156.871536 
	C336.610199,156.811188 336.646515,156.798203 340.966370,168.881042 
	C344.515106,178.806931 347.964050,188.768478 351.830261,199.776245 
	C356.232880,187.486679 360.241364,176.313461 364.237854,165.135941 
	C367.179962,156.907196 367.172913,156.903351 376.018524,156.864960 
	C377.796692,156.857239 379.574951,156.863846 381.985901,156.863846 
	C379.873352,161.722183 377.974304,165.929840 376.204102,170.191010 
	C371.098083,182.481949 365.941040,194.753647 361.037506,207.125427 
	C359.712494,210.468521 358.141815,212.164871 354.230469,211.974365 
	C340.951324,211.327621 344.167694,214.574036 338.785248,201.470016 
	C333.225098,187.933380 327.734070,174.367432 322.390198,160.744720 
	C322.009094,159.773224 319.076721,157.404068 323.535828,156.871536 
z"/>
<path fill="#0F3456" opacity="1.000000" stroke="none" 
	d="
M575.179321,133.041458 
	C576.646423,132.639297 578.111450,131.895645 579.580933,131.886673 
	C598.903320,131.768631 618.228027,131.877747 637.547913,131.615967 
	C641.716309,131.559494 642.156128,133.502869 642.124329,136.724792 
	C642.092712,139.942703 642.116577,142.761139 637.575134,142.670654 
	C630.756226,142.534790 623.930664,142.734589 616.354370,142.915833 
	C615.388733,143.029724 615.176697,143.019409 614.678345,143.309296 
	C614.262939,145.413696 614.024597,147.217743 614.021851,149.022156 
	C613.994019,167.101746 614.011841,185.181381 613.993835,203.261002 
	C613.992065,205.025146 613.835693,206.789124 613.745544,208.668121 
	C611.172119,208.890182 609.100586,209.068939 607.028992,209.247681 
	C607.035339,209.491608 607.041626,209.735519 607.047913,209.979431 
	C609.654907,209.979431 612.261902,209.979431 615.000916,210.207642 
	C615.428833,210.617767 615.724731,210.799652 616.020630,210.981567 
	C611.114502,211.257782 606.208374,211.533981 601.342651,211.299652 
	C601.616699,210.506104 601.850403,210.223099 602.364197,209.643204 
	C602.760376,208.700226 602.977417,208.054230 602.977966,207.408035 
	C602.996704,187.164749 603.011536,166.921402 602.952698,146.678253 
	C602.949158,145.453293 602.333191,144.230103 601.772095,143.153931 
	C601.254761,144.160782 600.967590,145.019760 600.680420,145.878754 
	C600.524597,145.112976 600.368835,144.347198 599.990234,142.820648 
	C598.077148,141.704254 596.392456,141.076691 594.695740,141.041946 
	C588.606873,140.917252 582.513977,140.993042 576.631531,140.993042 
	C576.052734,137.823593 575.616028,135.432526 575.179321,133.041458 
z"/>
<path fill="#0058AA" opacity="1.000000" stroke="none" 
	d="
M87.003181,203.009232 
	C87.006233,203.414474 87.009293,203.819733 87.014130,204.528931 
	C76.653580,204.903748 66.291245,204.974609 55.426399,204.763016 
	C54.828777,204.223709 54.649529,204.057709 54.386131,203.982559 
	C54.336231,202.936157 54.286331,201.889755 54.661507,200.300751 
	C55.361862,198.186142 55.860119,196.616226 55.874840,195.041763 
	C55.949039,187.105438 55.897190,179.167938 55.922375,170.871552 
	C56.300594,169.669769 56.646015,168.827301 56.991440,167.984802 
	C59.145935,166.960037 62.380623,166.506897 63.275623,164.815628 
	C68.235474,155.442993 76.116180,149.609726 85.638733,145.508682 
	C85.998367,163.238678 85.971214,180.537384 86.044342,197.835678 
	C86.051636,199.561508 86.668968,201.284775 87.003181,203.009232 
z"/>
<path fill="#045AA8" opacity="1.000000" stroke="none" 
	d="
M83.244446,213.138580 
	C84.708923,213.023102 86.173386,212.907608 87.987503,212.764557 
	C87.987503,225.349945 87.987503,237.606781 87.987503,250.222397 
	C76.985527,250.222397 65.931473,250.222397 54.144470,250.222397 
	C54.144470,238.440521 54.091541,226.689987 54.272572,214.943039 
	C54.283741,214.218430 56.139080,213.522232 57.416130,213.156586 
	C58.081902,213.998886 58.462860,214.927597 58.854683,214.932205 
	C66.178459,215.018356 73.514130,215.231293 80.824265,214.903610 
	C85.069954,214.713303 86.216583,216.186279 86.093605,220.278137 
	C85.817337,229.470337 86.007019,238.676575 86.007019,247.877090 
	C86.953125,237.586990 87.086769,227.299667 86.788986,217.024841 
	C86.750481,215.696304 84.480675,214.432419 83.244446,213.138580 
z"/>
<path fill="#0644A1" opacity="1.000000" stroke="none" 
	d="
M56.992294,167.517715 
	C56.646015,168.827301 56.300594,169.669769 55.659634,170.801270 
	C55.005306,171.036697 54.646523,170.983124 54.287735,170.929535 
	C54.255138,159.269058 54.222542,147.608582 54.412956,135.394409 
	C54.676575,134.728851 54.782471,134.582855 54.745262,134.511688 
	C54.643131,134.316284 54.480904,134.152313 54.342464,133.975891 
	C54.287064,126.290924 54.231663,118.605965 54.473618,110.136131 
	C54.830254,106.871094 54.889538,104.390915 54.948814,101.910744 
	C55.310341,101.794403 55.671871,101.678062 56.610210,101.747879 
	C57.774055,101.818665 58.361088,101.703308 58.948120,101.587944 
	C60.025608,101.448280 61.103096,101.308617 62.827660,101.413116 
	C64.652702,101.469414 65.830673,101.281532 67.008644,101.093658 
	C84.808136,101.645020 102.607620,102.196381 120.907822,103.126633 
	C121.806213,103.609634 122.203896,103.713737 122.601570,103.817841 
	C123.828781,104.869278 125.055992,105.920715 126.040573,107.385368 
	C125.527138,107.867073 125.256355,107.935555 124.985573,108.004036 
	C121.028000,106.668777 117.161873,104.800346 113.094925,104.102791 
	C102.781876,102.333893 93.857986,105.291702 86.773026,113.227043 
	C86.345154,113.706261 85.754318,114.138237 85.153870,114.350555 
	C73.904778,118.328339 68.251831,127.947594 61.283623,136.665802 
	C56.344517,142.845322 57.211521,149.030014 57.017902,155.564072 
	C56.904530,159.389801 56.994602,163.221558 56.992294,167.517715 
z"/>
<path fill="#103357" opacity="1.000000" stroke="none" 
	d="
M470.697723,199.241989 
	C471.361786,203.606247 474.434784,204.703735 478.136169,204.302109 
	C479.826111,212.325043 479.208160,213.110092 471.641388,213.190903 
	C462.919495,213.284042 458.800659,210.259094 456.280334,201.351471 
	C456.548218,200.990326 456.987854,200.996933 457.286255,200.704147 
	C457.721863,198.768265 457.976746,197.125305 457.978516,195.482071 
	C458.002838,172.995331 457.992249,150.508545 458.448730,128.013748 
	C462.265808,128.010956 465.624359,128.016190 468.987366,128.488739 
	C468.992249,150.455872 468.949219,171.955963 469.067230,193.455139 
	C469.077820,195.387024 470.129517,197.313187 470.697723,199.241989 
z"/>
<path fill="#03977E" opacity="1.000000" stroke="none" 
	d="
M118.232513,217.309189 
	C110.449745,217.310287 103.132141,217.310287 94.905449,217.310287 
	C94.905449,207.776306 94.841255,198.521652 95.025642,189.271973 
	C95.040619,188.520706 96.746056,187.182434 97.683929,187.166397 
	C106.969063,187.007538 116.257996,187.070251 125.889923,187.070251 
	C125.889923,196.691360 125.889923,206.596573 125.889923,217.308090 
	C123.511971,217.308090 121.104820,217.308090 118.232513,217.309189 
z"/>
<path fill="#082F54" opacity="1.000000" stroke="none" 
	d="
M556.994385,132.066498 
	C559.040344,131.989639 561.086304,131.912781 563.588867,132.366394 
	C564.017212,158.283951 563.989014,183.671005 563.521484,209.037933 
	C560.721497,209.026794 558.360901,209.035812 555.600098,209.039001 
	C554.132568,209.029358 553.065186,209.025543 551.998779,208.550629 
	C551.999756,185.122559 552.020691,162.165558 551.958313,139.208771 
	C551.953613,137.477661 551.356201,135.748138 551.020996,133.764984 
	C551.004456,133.343338 551.001160,133.174545 550.997314,132.767975 
	C550.996887,132.530197 551.004883,132.054688 551.004883,132.054688 
	C551.453369,132.004852 551.901917,131.955032 552.897217,132.236084 
	C554.627502,132.400131 555.810913,132.233322 556.994385,132.066498 
z"/>
<path fill="#037571" opacity="1.000000" stroke="none" 
	d="
M129.702988,224.591858 
	C129.702988,224.591858 129.868179,224.136444 130.332336,224.033600 
	C130.949417,223.877228 131.102341,223.823685 131.255264,223.770142 
	C131.133499,223.508011 131.011749,223.245895 130.889999,222.983765 
	C133.956268,218.715408 137.022522,214.447037 140.798553,210.055756 
	C145.338074,210.287643 149.597153,209.704742 152.897369,211.215927 
	C157.909241,213.510849 162.297607,217.199539 166.867630,220.414459 
	C169.337296,222.151810 171.634262,224.134644 174.005402,226.366989 
	C173.990555,227.447800 173.979462,228.168350 173.968353,228.888885 
	C168.194031,234.849319 162.419708,240.809753 156.325226,246.482727 
	C155.069809,244.029938 154.669876,241.313690 153.106613,239.794662 
	C146.338425,233.217987 139.144485,227.124603 129.702988,224.591858 
z"/>
<path fill="#0A61AF" opacity="1.000000" stroke="none" 
	d="
M124.829636,108.315979 
	C125.256355,107.935555 125.527138,107.867073 126.192383,107.655464 
	C126.586830,107.512344 126.549072,107.536430 126.436172,107.729973 
	C126.547493,107.977837 126.771706,108.032166 126.995918,108.086494 
	C134.187378,116.011276 141.378845,123.936066 149.180344,132.533081 
	C141.641174,132.533081 135.223892,132.533081 128.354858,132.375824 
	C126.249794,131.811707 124.603203,131.089081 122.942009,131.053787 
	C116.489609,130.916656 110.032578,130.997971 102.232719,130.997971 
	C107.845932,122.995163 109.832275,113.687447 119.906372,111.097061 
	C121.595436,110.662750 123.089516,109.470139 124.829636,108.315979 
z"/>
<path fill="#208C58" opacity="1.000000" stroke="none" 
	d="
M188.152954,163.268127 
	C188.744904,162.993896 189.105820,162.981766 189.609512,163.278946 
	C190.138504,164.859451 190.117065,166.658615 190.973953,167.320251 
	C199.599289,173.980133 208.225616,180.708298 219.179718,183.269867 
	C215.449738,187.138367 211.719742,191.006851 207.348709,194.967499 
	C206.473862,195.042068 206.240067,195.024460 205.994003,194.618973 
	C204.987442,193.324356 204.141296,191.962433 202.975403,191.582993 
	C193.732010,188.574722 184.401627,185.832550 175.171906,182.784775 
	C173.865387,182.353363 172.958023,180.713257 171.865906,179.632599 
	C177.217911,174.265137 182.569901,168.897690 188.152954,163.268127 
z"/>
<path fill="#026774" opacity="1.000000" stroke="none" 
	d="
M129.450150,224.712387 
	C139.144485,227.124603 146.338425,233.217987 153.106613,239.794662 
	C154.669876,241.313690 155.069809,244.029938 156.010040,246.593231 
	C152.728638,248.086884 149.511093,249.687302 146.138000,250.147385 
	C142.135986,250.693298 138.000076,250.257553 133.377563,249.749481 
	C130.868729,248.834274 128.848312,248.583496 126.958282,247.946106 
	C125.473656,247.445450 124.000298,246.652557 122.781761,245.667938 
	C118.288834,242.037521 117.338730,238.025711 121.845131,233.624680 
	C122.011673,233.462051 121.875526,232.989487 121.880432,232.661362 
	C124.319389,230.051880 126.758347,227.442398 129.450150,224.712387 
z"/>
<path fill="#1A865E" opacity="1.000000" stroke="none" 
	d="
M171.547455,179.762268 
	C172.958023,180.713257 173.865387,182.353363 175.171906,182.784775 
	C184.401627,185.832550 193.732010,188.574722 202.975403,191.582993 
	C204.141296,191.962433 204.987442,193.324356 206.026489,194.995682 
	C206.105286,196.010117 206.139343,196.259964 206.173401,196.509827 
	C203.140717,199.627319 200.108032,202.744812 196.388641,205.945587 
	C193.567245,205.019089 191.511795,203.754837 189.279160,203.059631 
	C185.997406,202.037735 182.357147,201.930283 179.283432,200.526917 
	C173.040833,197.676727 167.075348,194.219589 161.043396,190.664581 
	C162.428894,188.133072 163.766617,185.949615 165.104355,183.766159 
	C167.145905,182.474747 169.187439,181.183334 171.547455,179.762268 
z"/>
<path fill="#229155" opacity="1.000000" stroke="none" 
	d="
M219.165787,183.259674 
	C208.225616,180.708298 199.599289,173.980133 190.973953,167.320251 
	C190.117065,166.658615 190.138504,164.859451 189.880798,163.282837 
	C205.080154,162.974167 220.150986,162.970917 235.701904,162.992554 
	C234.847931,165.573257 233.913345,168.469360 232.090698,170.608994 
	C228.978424,174.262558 225.309128,177.441635 221.300247,181.047897 
	C220.528351,181.598373 220.330032,181.920959 220.131683,182.243530 
	C220.131683,182.243530 220.110703,182.109940 219.902954,182.202759 
	C219.515900,182.615540 219.336594,182.935486 219.157303,183.255432 
	C219.157303,183.255432 219.151855,183.249466 219.165787,183.259674 
z"/>
<path fill="#379D52" opacity="1.000000" stroke="none" 
	d="
M165.109879,183.326904 
	C163.766617,185.949615 162.428894,188.133072 160.834869,190.667084 
	C160.578568,191.017624 160.162827,190.985641 160.162827,190.985641 
	C157.008621,190.546921 153.864761,189.857224 150.697845,189.726547 
	C145.562714,189.514694 140.412445,189.669479 134.411987,189.669479 
	C134.411987,180.420273 134.411987,171.525696 134.867386,162.465881 
	C135.741150,163.690567 136.159515,165.080475 136.371994,165.786407 
	C140.804962,167.613281 145.126816,168.667664 148.595276,170.994278 
	C153.781845,174.473343 158.919662,175.998703 164.920670,174.004623 
	C164.985580,176.965637 165.050491,179.926651 165.109879,183.326904 
z"/>
<path fill="#077D6A" opacity="1.000000" stroke="none" 
	d="
M174.009155,226.006714 
	C171.634262,224.134644 169.337296,222.151810 166.867630,220.414459 
	C162.297607,217.199539 157.909241,213.510849 152.897369,211.215927 
	C149.597153,209.704742 145.338074,210.287643 141.088150,209.904480 
	C141.979477,208.508240 143.291000,207.140396 145.257797,205.754639 
	C149.281021,203.313263 152.648972,200.889816 154.855316,199.302216 
	C157.740616,200.834732 159.886459,202.269012 162.237457,203.165115 
	C168.077789,205.391251 174.137421,207.078659 179.871140,209.537140 
	C185.152145,211.801498 185.343018,214.801788 181.473373,219.126312 
	C179.841125,220.950409 178.780350,223.285873 177.459808,225.388901 
	C177.459808,225.388901 177.390060,225.095596 177.104462,225.244965 
	C176.700943,225.734344 176.583023,226.074326 176.465088,226.414307 
	C176.465088,226.414307 176.385117,226.437637 176.012680,226.322662 
	C175.096542,226.140686 174.552856,226.073700 174.009155,226.006714 
z"/>
<path fill="#118167" opacity="1.000000" stroke="none" 
	d="
M177.751099,225.245544 
	C178.780350,223.285873 179.841125,220.950409 181.473373,219.126312 
	C185.343018,214.801788 185.152145,211.801498 179.871140,209.537140 
	C174.137421,207.078659 168.077789,205.391251 162.237457,203.165115 
	C159.886459,202.269012 157.740616,200.834732 154.855316,199.302216 
	C152.648972,200.889816 149.281021,203.313263 145.522583,205.598190 
	C149.947235,200.755325 154.762375,196.050995 159.870163,191.166153 
	C160.162827,190.985641 160.578568,191.017624 160.787109,191.015121 
	C167.075348,194.219589 173.040833,197.676727 179.283432,200.526917 
	C182.357147,201.930283 185.997406,202.037735 189.279160,203.059631 
	C191.511795,203.754837 193.567245,205.019089 196.107574,206.093918 
	C190.356293,212.473373 184.199326,218.787781 177.751099,225.245544 
z"/>
<path fill="#44A14E" opacity="1.000000" stroke="none" 
	d="
M164.992020,173.545715 
	C158.919662,175.998703 153.781845,174.473343 148.595276,170.994278 
	C145.126816,168.667664 140.804962,167.613281 136.371994,165.786407 
	C136.159515,165.080475 135.741150,163.690567 134.993546,162.068176 
	C134.664307,161.835709 134.496231,161.450806 134.790009,161.188904 
	C135.196167,160.831528 135.416214,160.669312 135.404648,160.650650 
	C135.259506,160.416473 135.080856,160.203064 134.910797,159.984314 
	C139.886566,159.740128 144.860382,159.364258 149.838669,159.291122 
	C154.258636,159.226151 158.683533,159.497162 163.637726,159.964447 
	C164.448151,160.537033 164.727081,160.765045 165.006027,160.993057 
	C165.025146,165.024307 165.044250,169.055542 164.992020,173.545715 
z"/>
<path fill="#606264" opacity="1.000000" stroke="none" 
	d="
M669.444519,303.644196 
	C669.475647,306.737701 669.616089,309.412231 669.432800,312.064392 
	C669.368652,312.991730 668.507324,313.863983 668.010010,314.761414 
	C667.380554,313.821075 666.592590,312.945068 666.175476,311.918457 
	C665.883301,311.199249 666.263062,310.230560 666.056396,309.449005 
	C665.186401,306.159271 668.302856,300.315094 662.544739,300.192505 
	C656.682434,300.067688 659.427856,305.919312 658.742920,309.267303 
	C658.513000,310.390900 658.871338,311.649109 658.572876,312.739624 
	C658.362915,313.506866 657.497253,314.094666 656.924438,314.762604 
	C656.396790,314.070740 655.460449,313.405823 655.412781,312.682343 
	C655.215881,309.695038 655.665161,306.617096 655.105164,303.721710 
	C654.818604,302.240173 652.902466,301.073822 651.722839,299.765045 
	C650.377441,301.002136 648.206848,302.046082 647.862427,303.517487 
	C647.193848,306.373749 647.674438,309.481354 647.403503,312.459778 
	C647.328674,313.282318 646.281494,314.016388 645.680481,314.791016 
	C645.199951,314.044586 644.348145,313.319427 644.303894,312.547943 
	C644.122742,309.391266 644.183044,306.220459 644.164429,303.054810 
	C644.153809,301.254944 644.162476,299.454926 644.162476,298.209167 
	C650.482788,295.584473 656.407349,299.175049 662.462769,297.162109 
	C666.955688,295.668640 669.164673,298.799164 669.444519,303.644196 
z"/>
<path fill="#606264" opacity="1.000000" stroke="none" 
	d="
M183.651184,297.598206 
	C187.374527,297.444641 190.765091,297.444641 194.589050,297.444641 
	C194.589050,303.785431 195.042786,309.934296 194.465698,315.984833 
	C193.847443,322.467041 187.242874,324.605499 179.933823,320.364136 
	C184.032028,318.596100 190.950531,322.381317 191.083511,314.677795 
	C185.082611,315.856812 181.743484,314.563690 179.753036,310.392029 
	C177.526215,305.725006 178.709534,301.529846 183.651184,297.598206 
M182.359650,307.878387 
	C183.456329,310.775177 185.354568,313.228394 188.561615,311.867920 
	C190.062119,311.231445 190.769699,308.465057 191.566849,306.551636 
	C191.915497,305.714691 191.925873,304.403503 191.494720,303.646790 
	C190.683685,302.223297 189.557709,300.145996 188.348236,299.988647 
	C186.749405,299.780609 184.451752,300.729462 183.371475,301.975861 
	C182.360687,303.142120 182.546478,305.345459 182.359650,307.878387 
z"/>
<path fill="#5C5D60" opacity="1.000000" stroke="none" 
	d="
M493.158478,301.010010 
	C493.127380,297.364655 493.002136,294.208344 493.139008,291.063416 
	C493.170471,290.339935 494.101562,289.655579 494.618652,288.953217 
	C495.299347,289.649689 496.467712,290.283325 496.567108,291.054688 
	C496.839020,293.164703 496.660736,295.332733 496.660736,297.748474 
	C498.001068,297.748474 498.960876,297.869324 499.879730,297.726593 
	C503.021545,297.238464 506.849396,296.599823 507.947968,300.146271 
	C508.974579,303.460541 509.220306,307.819366 507.840881,310.810425 
	C506.823425,313.016632 502.747131,314.111115 499.822418,315.023834 
	C498.134705,315.550537 496.027344,314.732605 493.159576,314.414612 
	C493.159576,310.284180 493.159576,305.893677 493.158478,301.010010 
M502.944427,311.878326 
	C506.520874,310.048920 506.308350,306.777710 505.772430,303.651703 
	C505.174133,300.162018 500.602875,298.248474 498.689301,300.913788 
	C497.114502,303.107178 497.055786,306.728088 497.252899,309.653839 
	C497.314240,310.564423 500.405090,311.270905 502.944427,311.878326 
z"/>
<path fill="#56585A" opacity="1.000000" stroke="none" 
	d="
M688.034973,309.842529 
	C688.924194,313.561310 686.287048,313.736023 683.784607,314.139740 
	C681.952026,314.435394 680.143433,314.879883 678.070801,315.310730 
	C678.030701,315.597443 678.033936,316.276764 677.831787,316.888214 
	C677.244568,318.664337 676.575012,320.413239 675.937744,322.172821 
	C675.443054,320.445282 674.567871,318.727783 674.521790,316.988373 
	C674.351135,310.541229 674.453796,304.086853 674.453796,297.683563 
	C678.011902,297.683563 681.186951,297.165009 684.075989,297.850952 
	C686.306702,298.380554 689.397766,300.073456 689.910828,301.874573 
	C690.598389,304.288147 689.167175,307.305298 688.240967,309.618561 
	C687.536072,307.418976 687.558167,305.517120 686.843689,303.951324 
	C686.152771,302.436920 684.933105,300.682312 683.516907,300.127350 
	C682.307861,299.653534 679.301575,300.469727 679.147095,301.169464 
	C678.463867,304.263458 677.482605,307.956696 678.590088,310.604523 
	C679.839600,313.591980 683.294373,312.754120 685.901428,310.978912 
	C686.563538,310.528046 687.321167,310.217529 688.034973,309.842529 
z"/>
<path fill="#5C5D60" opacity="1.000000" stroke="none" 
	d="
M69.967072,297.476868 
	C75.307777,295.928314 80.680717,299.092163 86.171661,297.076416 
	C89.793518,295.746857 92.875381,297.537567 93.391289,301.675201 
	C93.840256,305.276031 93.766052,308.954193 93.708855,312.594818 
	C93.698593,313.248322 92.647179,313.885529 92.076477,314.530273 
	C91.557846,313.833374 90.652412,313.170105 90.588455,312.433716 
	C90.330460,309.463318 90.666405,306.403809 90.091415,303.514893 
	C89.819832,302.150330 87.677673,299.943420 86.925583,300.144745 
	C85.410294,300.550385 83.652916,302.125397 83.122238,303.618469 
	C82.435051,305.551910 83.020943,307.900024 82.731354,310.024994 
	C82.512909,311.627899 81.780296,313.160736 81.276543,314.724762 
	C80.691536,313.247345 79.847275,311.813965 79.586716,310.281403 
	C79.256119,308.336761 79.471664,306.306183 79.323418,304.322235 
	C79.001762,300.017609 76.946907,298.712433 72.330795,300.824707 
	C71.076927,299.698456 70.521996,298.587677 69.967072,297.476868 
z"/>
<path fill="#273A5E" opacity="1.000000" stroke="none" 
	d="
M551.997864,209.021729 
	C553.065186,209.025543 554.132568,209.029358 555.871216,209.314819 
	C559.015320,209.416992 561.488098,209.237534 563.960815,209.058075 
	C563.989014,183.671005 564.017212,158.283951 564.024353,132.425568 
	C564.632874,132.670135 565.810120,133.383987 565.812744,134.102142 
	C565.907227,159.804153 565.891968,185.506592 565.891968,211.770615 
	C560.521362,211.770615 555.462830,211.770615 550.487305,211.258057 
	C550.865051,210.568756 551.061279,210.315674 551.344849,209.870483 
	C551.757690,209.555908 551.913452,209.311584 551.997864,209.021729 
z"/>
<path fill="#055C6F" opacity="1.000000" stroke="none" 
	d="
M121.562042,232.799194 
	C121.875526,232.989487 122.011673,233.462051 121.845131,233.624680 
	C117.338730,238.025711 118.288834,242.037521 122.781761,245.667938 
	C124.000298,246.652557 125.473656,247.445450 126.958282,247.946106 
	C128.848312,248.583496 130.868729,248.834274 132.919830,249.643555 
	C123.169693,250.035400 113.332664,250.035400 103.495644,250.035400 
	C103.271179,249.688705 103.046715,249.342010 102.822258,248.995331 
	C108.962723,243.642563 115.103188,238.289780 121.562042,232.799194 
z"/>
<path fill="#606264" opacity="1.000000" stroke="none" 
	d="
M63.041534,291.830566 
	C61.689133,292.475739 60.290264,292.588623 58.979885,292.990204 
	C56.937374,293.616211 54.954937,294.438202 52.947037,295.177124 
	C54.107914,296.914764 55.156258,298.745514 56.481625,300.347015 
	C57.062237,301.048584 58.182171,301.347992 59.102684,301.716400 
	C62.678577,303.147552 65.274887,305.330994 64.184860,309.592102 
	C63.162281,313.589569 59.855717,315.005188 56.183254,314.996124 
	C53.768570,314.990173 51.356297,314.008087 48.942944,313.463135 
	C49.068115,312.866333 49.193283,312.269501 49.318455,311.672699 
	C51.507866,311.840057 53.771893,312.421509 55.863262,312.044678 
	C57.559914,311.739014 59.991547,310.550140 60.358467,309.258942 
	C60.707123,308.031921 59.062263,305.899689 57.807266,304.656952 
	C56.691261,303.551880 54.435703,303.487610 53.522057,302.312012 
	C51.837502,300.144409 49.405712,297.223602 49.828575,295.130463 
	C50.244465,293.071838 53.597290,290.936401 56.073521,290.174988 
	C58.076180,289.559204 60.691299,290.935211 63.041534,291.830566 
z"/>
<path fill="#5C5D60" opacity="1.000000" stroke="none" 
	d="
M233.861481,314.059143 
	C231.554382,314.588287 229.494934,314.789551 227.430862,314.914032 
	C224.290344,315.103516 221.219986,315.001068 220.550980,310.974579 
	C219.893127,307.015045 222.161087,305.101471 225.667755,304.341034 
	C227.269913,303.993591 228.940582,303.962036 230.584412,303.786804 
	C229.964081,299.632782 229.964081,299.632782 222.347290,300.085175 
	C222.183716,299.640381 222.020126,299.195618 221.856552,298.750824 
	C223.943497,298.152527 226.000977,297.221283 228.124237,297.033417 
	C231.367889,296.746460 233.769012,298.425903 234.038269,301.756378 
	C234.358093,305.712555 234.109406,309.714691 233.861481,314.059143 
M224.300232,311.226410 
	C229.130905,313.161621 230.699875,312.170441 230.723312,306.798370 
	C227.886047,307.050293 224.300034,305.374298 224.300232,311.226410 
z"/>
<path fill="#5C5D60" opacity="1.000000" stroke="none" 
	d="
M376.856689,312.983032 
	C372.388153,315.868378 368.257782,315.861176 364.810394,312.229431 
	C361.538116,308.782135 361.781860,304.603485 363.967987,300.667419 
	C366.045258,296.927338 369.633240,296.232635 373.486572,297.072205 
	C380.067902,298.506256 381.808868,306.137268 376.856689,312.983032 
M370.642639,312.350220 
	C374.600677,312.369080 376.657196,310.025970 376.247253,306.462921 
	C375.987396,304.204407 374.554871,301.501434 372.770355,300.229492 
	C371.803589,299.540375 367.470093,301.191040 367.308411,302.208008 
	C366.844086,305.128784 367.675873,308.273438 368.159088,311.304474 
	C368.219452,311.682983 369.247009,311.907349 370.642639,312.350220 
z"/>
<path fill="#5C5D60" opacity="1.000000" stroke="none" 
	d="
M694.896851,313.374969 
	C692.116943,306.804626 693.792725,305.007904 703.872986,303.418762 
	C702.865723,297.585907 698.325684,300.850006 694.285767,300.132965 
	C696.900269,296.545013 700.043884,296.237854 702.766907,297.298950 
	C710.756592,300.412415 706.444641,307.446259 707.820984,313.669403 
	C703.233521,313.669403 699.191589,313.669403 694.896851,313.374969 
M703.342346,306.562378 
	C702.358337,306.593994 701.206970,306.312164 700.427979,306.727936 
	C699.138062,307.416351 697.934143,308.436981 697.054871,309.592285 
	C696.857849,309.851288 698.223206,312.020111 698.744629,311.971527 
	C700.388000,311.818420 702.150940,311.289978 703.496887,310.366455 
	C704.089172,309.960052 703.786499,308.249146 703.342346,306.562378 
z"/>
<path fill="#68686A" opacity="1.000000" stroke="none" 
	d="
M453.108398,302.779419 
	C453.669220,305.832123 452.933960,307.225372 449.838531,306.930603 
	C447.221497,306.681427 444.561951,306.879272 441.853149,306.879272 
	C442.517365,311.483887 442.517365,311.483887 451.778931,312.255707 
	C450.270355,314.920868 447.378296,315.862671 443.634155,314.745850 
	C439.322784,313.459808 437.594269,310.323914 437.756439,306.007507 
	C437.921722,301.608154 439.619629,298.060272 444.233795,297.115845 
	C448.523346,296.237854 451.752136,297.905426 453.108398,302.779419 
M448.891418,303.982300 
	C448.272858,302.588226 447.952118,300.289551 446.980011,299.969543 
	C444.050903,299.005280 441.960999,300.332062 441.330963,304.050659 
	C443.777191,304.050659 445.921021,304.050659 448.891418,303.982300 
z"/>
<path fill="#606264" opacity="1.000000" stroke="none" 
	d="
M336.549896,307.888672 
	C336.541107,310.322845 336.541107,312.285797 336.541107,314.404999 
	C334.443512,314.404999 332.865479,314.169312 331.382324,314.444641 
	C323.844757,315.843994 321.948853,314.433594 321.732849,306.952271 
	C321.660828,304.457733 321.594086,301.952972 321.755646,299.467865 
	C321.805023,298.708313 322.623383,297.998718 323.089569,297.266266 
	C323.709778,298.039337 324.796509,298.773193 324.865448,299.592651 
	C325.101898,302.402954 324.526459,305.352661 325.169983,308.030670 
	C325.548553,309.606262 327.720093,311.903992 328.952850,311.824493 
	C330.436310,311.728821 332.543152,309.674225 333.005798,308.071106 
	C333.717987,305.603271 333.081909,302.776917 333.390137,300.146271 
	C333.507690,299.142609 334.652008,298.259186 335.328430,297.320984 
	C335.738495,297.558044 336.148590,297.795074 336.558685,298.032104 
	C336.558685,301.160553 336.558685,304.288971 336.549896,307.888672 
z"/>
<path fill="#5C5D60" opacity="1.000000" stroke="none" 
	d="
M106.404877,300.390442 
	C103.818748,300.172241 101.582642,300.172241 99.346527,300.172241 
	C99.188179,299.697510 99.029831,299.222778 98.871483,298.748016 
	C100.976067,298.149048 103.374832,296.626862 105.112122,297.180481 
	C107.377281,297.902313 110.358475,299.983917 110.820557,301.989777 
	C111.721024,305.898560 111.084480,310.161377 111.084480,314.290649 
	C108.925888,314.481079 106.939445,314.595154 104.969940,314.843567 
	C101.557724,315.273926 98.412704,314.958801 97.612648,310.920319 
	C96.842789,307.034271 99.223953,305.091766 102.717178,304.337006 
	C104.317093,303.991302 105.977661,303.926392 108.137695,303.672089 
	C107.603432,302.488495 107.179153,301.548553 106.404877,300.390442 
M101.464813,311.634094 
	C106.552223,313.062744 108.041229,311.839722 107.347702,306.117615 
	C104.859215,307.483917 100.457886,305.474304 101.464813,311.634094 
z"/>
<path fill="#606264" opacity="1.000000" stroke="none" 
	d="
M580.565430,313.683533 
	C575.551697,308.251740 575.738220,300.744873 581.089539,298.178070 
	C583.305176,297.115326 587.073730,296.889923 588.932556,298.112915 
	C591.083008,299.527771 591.907654,302.957611 593.966980,306.715027 
	C588.434631,306.715027 584.712097,306.715027 580.326050,306.715027 
	C581.800476,314.045288 587.242676,311.709045 591.337036,312.747559 
	C588.071167,315.447388 584.605957,315.572571 580.565430,313.683533 
M583.103821,299.945160 
	C582.220825,301.072021 581.337891,302.198883 580.074219,303.811584 
	C583.659912,303.811584 586.201416,303.811584 589.142212,303.811584 
	C588.306152,300.654144 586.922241,299.060883 583.103821,299.945160 
z"/>
<path fill="#606264" opacity="1.000000" stroke="none" 
	d="
M470.097168,312.679352 
	C467.363220,315.452606 460.005890,315.807526 457.778809,313.732452 
	C454.746918,310.907501 455.596313,306.291016 459.583160,304.929260 
	C461.745575,304.190674 464.113892,304.054840 466.389374,303.647278 
	C465.492767,299.436829 464.972260,299.229492 458.360809,300.449402 
	C458.101288,300.043762 457.841797,299.638092 457.582275,299.232452 
	C459.005981,298.483978 460.362457,297.307465 461.866608,297.071167 
	C465.654663,296.476196 469.169739,297.329346 469.847778,301.756073 
	C470.371796,305.177277 470.056641,308.727020 470.097168,312.679352 
M464.964355,306.580811 
	C463.141296,307.449432 461.288239,308.266998 459.554047,309.286743 
	C459.419891,309.365662 460.080017,311.563812 460.440857,311.584961 
	C462.143188,311.684692 464.162292,311.835114 465.470306,311.014313 
	C466.174316,310.572510 465.674133,308.211731 464.964355,306.580811 
z"/>
<path fill="#5C5D60" opacity="1.000000" stroke="none" 
	d="
M395.721924,309.645081 
	C395.702484,307.704071 396.157959,305.971527 395.557312,304.764587 
	C394.657227,302.955933 393.015503,301.516388 391.689209,299.919861 
	C390.230652,301.598694 388.126831,303.064117 387.482697,305.012238 
	C386.736908,307.267609 387.425171,309.963043 387.169586,312.434204 
	C387.086426,313.238495 385.994080,313.938416 385.363281,314.686035 
	C384.884796,313.955475 384.010376,313.234772 383.991913,312.492737 
	C383.868561,307.541382 383.927887,302.585510 383.927887,297.876801 
	C386.642639,297.559021 388.813660,297.324921 390.979095,297.047241 
	C395.357391,296.485779 398.136505,298.385468 398.702637,302.793823 
	C399.082001,305.747772 399.070679,308.778748 398.918518,311.759125 
	C398.867493,312.758942 397.841858,313.709045 397.261749,314.681885 
	C396.752319,313.816345 396.130310,312.994110 395.774567,312.069458 
	C395.551117,311.488739 395.727264,310.754242 395.721924,309.645081 
z"/>
<path fill="#56585A" opacity="1.000000" stroke="none" 
	d="
M257.308777,301.497925 
	C259.935425,297.189423 263.516998,295.903687 267.710022,297.629089 
	C271.720154,299.279205 271.719940,302.843781 270.700592,307.144318 
	C269.107513,307.144318 267.363098,307.144318 265.618683,307.144318 
	C263.841339,307.144318 262.063995,307.144318 259.958313,307.144318 
	C261.217987,314.212097 266.735748,311.387756 270.576324,312.797699 
	C267.731750,315.248047 264.509827,315.552826 261.145386,314.195251 
	C256.888336,312.477478 255.535721,308.054871 257.308777,301.497925 
M268.081665,302.777771 
	C266.465546,301.788971 264.772736,299.936249 263.256287,300.070801 
	C261.920746,300.189270 260.782288,302.529053 259.556824,303.887909 
	C259.899933,304.402435 260.243073,304.916992 260.586182,305.431519 
	C263.142853,304.830750 265.699493,304.230011 268.081665,302.777771 
z"/>
<path fill="#56585A" opacity="1.000000" stroke="none" 
	d="
M563.624756,297.378967 
	C570.925415,296.748352 572.723816,298.344849 572.838440,305.139008 
	C572.877625,307.460419 572.943054,309.794617 572.741577,312.100739 
	C572.652771,313.117523 571.928223,314.078796 571.492310,315.065247 
	C570.886353,314.962769 570.280457,314.860291 569.674561,314.757782 
	C569.674561,311.588226 570.141174,308.321381 569.507812,305.283905 
	C569.096924,303.313324 567.326416,300.471130 565.731873,300.146362 
	C562.551208,299.498474 561.245178,302.146912 561.259460,305.226562 
	C561.273682,308.295288 561.262573,311.364105 561.262573,314.845337 
	C557.668457,313.075989 556.880127,305.440765 558.618713,297.541901 
	C560.167480,297.541901 561.707336,297.541901 563.624756,297.378967 
z"/>
<path fill="#56585A" opacity="1.000000" stroke="none" 
	d="
M299.887909,296.947815 
	C306.412964,298.472107 309.113007,302.428497 307.862854,308.056519 
	C306.760986,313.017059 302.269623,315.941620 297.448578,314.837830 
	C292.780823,313.769135 289.770660,308.716553 290.920166,303.615448 
	C291.932465,299.123260 294.903259,296.950684 299.887909,296.947815 
M294.553528,308.655579 
	C295.631500,311.857086 297.800995,313.292450 301.059540,312.139404 
	C304.774353,310.824921 305.145966,307.663849 304.596802,304.355621 
	C304.078522,301.233337 302.368835,299.113007 298.884247,299.454865 
	C295.361176,299.800537 294.368683,302.361481 294.206207,305.431213 
	C294.162842,306.250549 294.292877,307.079041 294.553528,308.655579 
z"/>
<path fill="#5C5D60" opacity="1.000000" stroke="none" 
	d="
M612.375916,298.581879 
	C618.545654,295.897858 620.607971,296.263824 621.268799,299.858215 
	C619.019409,300.063385 616.762573,300.268890 614.505737,300.474365 
	C614.389282,300.966248 614.272888,301.458130 614.156433,301.950012 
	C615.410339,302.769836 616.600952,303.715912 617.931335,304.383301 
	C620.744141,305.794434 623.458984,307.388977 622.424744,311.094391 
	C621.349976,314.944550 618.006226,315.188934 614.737549,314.904816 
	C613.282104,314.778320 611.872742,314.120911 610.442505,313.704498 
	C610.539429,313.195984 610.636292,312.687469 610.733215,312.178955 
	C611.841248,312.178955 612.980469,312.343506 614.050171,312.140991 
	C615.716675,311.825500 617.335999,311.260773 618.975281,310.801666 
	C617.860107,309.584473 616.958496,307.978333 615.588074,307.226013 
	C612.049133,305.283173 609.083984,303.385315 612.375916,298.581879 
z"/>
<path fill="#56585A" opacity="1.000000" stroke="none" 
	d="
M607.662109,309.283325 
	C605.969910,315.622437 600.429932,317.013885 595.223877,311.916351 
	C597.607788,312.116516 599.301208,312.512329 600.918335,312.307159 
	C602.032776,312.165741 603.041626,311.192169 604.097656,310.590485 
	C603.480347,309.699036 602.945679,308.730438 602.213745,307.945862 
	C601.791504,307.493195 601.041809,307.354340 600.454529,307.045715 
	C596.127991,304.772125 594.500244,301.571777 596.357361,299.006897 
	C597.777405,297.045624 603.371643,297.179382 607.016663,299.763702 
	C604.139221,300.020416 601.898499,300.220306 598.504456,300.523102 
	C602.013611,303.763458 604.805603,306.341553 607.662109,309.283325 
z"/>
<path fill="#002249" opacity="1.000000" stroke="none" 
	d="
M470.754700,198.771515 
	C470.129517,197.313187 469.077820,195.387024 469.067230,193.455139 
	C468.949219,171.955963 468.992249,150.455872 469.262512,128.471893 
	C469.899750,127.976379 470.266266,127.965019 470.632812,127.953651 
	C470.683990,148.907196 470.734924,169.860748 470.786682,190.814285 
	C470.792847,193.309875 470.803253,195.805466 470.754700,198.771515 
z"/>
<path fill="#5C5D60" opacity="1.000000" stroke="none" 
	d="
M155.992828,297.251312 
	C158.062973,297.251312 160.133102,297.251312 162.337784,297.251312 
	C162.486252,294.596313 162.638458,291.874695 162.807205,288.857056 
	C166.096558,290.686554 166.981323,303.921997 164.992661,314.846619 
	C161.160751,314.522675 157.251694,314.192230 153.333496,313.242249 
	C154.002487,312.362671 154.680634,312.102570 155.752884,311.903748 
	C161.487396,312.261810 162.603165,311.253662 162.623627,306.113098 
	C162.645721,300.559662 161.705399,299.670624 155.991989,299.517212 
	C155.993912,298.546082 155.993378,297.898712 155.992828,297.251312 
z"/>
<path fill="#5C5D60" opacity="1.000000" stroke="none" 
	d="
M543.669189,312.812500 
	C538.608337,316.005219 535.415344,315.830658 532.602051,311.942474 
	C534.732056,312.088196 536.428772,312.406311 538.077637,312.242371 
	C539.090088,312.141663 540.029236,311.303192 541.001282,310.796021 
	C540.453308,309.901001 540.030579,308.884003 539.316528,308.150665 
	C538.772522,307.591980 537.680847,307.563477 537.143677,307.001801 
	C535.638489,305.427765 533.590820,303.865906 533.143677,301.971893 
	C532.863892,300.787018 534.812622,298.170563 536.255920,297.693848 
	C538.488525,296.956482 541.143921,297.499451 543.620056,297.499451 
	C543.637085,298.105988 543.654053,298.712524 543.671082,299.319092 
	C541.210510,299.768066 538.749939,300.217041 535.835083,300.748932 
	C537.968994,305.758789 547.378418,304.797272 543.669189,312.812500 
z"/>
<path fill="#5C5D60" opacity="1.000000" stroke="none" 
	d="
M348.327057,299.923279 
	C344.389832,304.990509 345.831390,310.567596 351.363861,313.326111 
	C347.721100,316.211121 343.836151,315.069489 343.145264,310.754669 
	C342.781189,308.480865 343.195404,306.083221 342.838531,303.807281 
	C342.565735,302.067505 341.633942,300.431030 340.710571,297.998596 
	C341.696106,296.741486 343.280334,294.720673 344.366913,293.334686 
	C346.446503,294.888306 348.024994,296.034515 349.562347,297.233459 
	C350.125061,297.672302 350.590149,298.236328 351.099792,298.743225 
	C350.315979,299.128510 349.532135,299.513763 348.327057,299.923279 
z"/>
<path fill="#5C5D60" opacity="1.000000" stroke="none" 
	d="
M214.407257,314.865936 
	C209.378784,313.615082 210.039124,309.814575 209.671814,306.372650 
	C209.392792,303.758026 208.598267,301.198395 208.033112,298.614258 
	C207.617981,298.636749 207.202835,298.659271 206.787689,298.681763 
	C208.406952,296.628174 210.026230,294.574554 211.301392,292.957367 
	C213.603012,295.124634 215.481415,296.893372 217.708710,298.990662 
	C216.487061,299.455963 215.015869,300.016296 213.550980,300.574249 
	C212.214432,310.322906 212.561096,311.281494 218.312180,313.646729 
	C217.144730,314.072723 215.977280,314.498749 214.407257,314.865936 
z"/>
<path fill="#444547" opacity="1.000000" stroke="none" 
	d="
M432.742493,300.183044 
	C431.123352,301.798401 428.184540,302.891144 430.143433,306.480652 
	C428.958313,306.930908 428.054779,306.935455 427.151276,306.940002 
	C425.376221,306.119415 423.601196,305.298798 421.325073,304.246552 
	C421.083069,308.442047 420.896820,311.670929 420.710571,314.899811 
	C420.237640,314.872437 419.764740,314.845032 419.291840,314.817657 
	C419.291840,306.883026 419.291840,298.948395 419.291840,290.303101 
	C422.135376,290.433380 425.193573,290.573547 428.583069,291.201721 
	C428.518219,292.188171 428.122070,292.686615 427.299988,293.168182 
	C425.095154,293.151276 423.316315,293.151276 421.285065,293.151276 
	C421.285065,296.194916 421.285065,298.901886 421.285065,302.770233 
	C424.521362,301.681915 427.167450,300.792114 430.301575,299.949768 
	C431.440582,300.059174 432.091553,300.121124 432.742493,300.183044 
z"/>
<path fill="#5C5D60" opacity="1.000000" stroke="none" 
	d="
M711.538818,305.257385 
	C713.676880,297.311340 719.518921,294.616302 726.000610,299.767792 
	C719.484131,299.267517 714.376892,300.078674 715.158325,307.276215 
	C715.797668,313.164734 720.609558,312.144104 724.705627,312.177826 
	C724.734802,312.750671 724.763977,313.323517 724.793213,313.896332 
	C722.593811,314.238312 720.265930,315.211487 718.221069,314.795044 
	C713.503174,313.834198 711.566284,310.294891 711.538818,305.257385 
z"/>
<path fill="#5C5D60" opacity="1.000000" stroke="none" 
	d="
M737.139404,299.592896 
	C733.152649,299.480103 732.710938,301.844788 733.188782,304.541565 
	C733.686829,307.352478 731.112366,311.670288 736.654297,312.257477 
	C737.109131,312.305603 737.553345,312.521729 737.981201,312.708679 
	C738.088501,312.755585 738.112915,312.992126 738.175354,313.141510 
	C735.164246,316.087402 731.291748,315.214081 730.272278,311.168060 
	C729.755493,309.116974 730.118042,306.856842 729.722046,304.759338 
	C729.320496,302.632294 728.474243,300.589172 727.659851,297.988922 
	C728.617432,296.743256 730.123291,294.784485 731.564026,292.910400 
	C733.685669,295.234253 735.560669,297.287933 737.139404,299.592896 
z"/>
<path fill="#56585A" opacity="1.000000" stroke="none" 
	d="
M274.816833,302.486786 
	C274.885925,300.884491 275.037018,299.635895 275.188080,298.387268 
	C275.536835,298.360168 275.885559,298.333038 276.234283,298.305908 
	C276.923004,300.021271 277.567200,301.756256 278.312927,303.446472 
	C279.060272,305.140381 279.908844,306.789551 281.250122,309.572754 
	C283.580597,304.556702 285.364807,300.716339 287.149048,296.876007 
	C288.813049,304.437531 283.609222,313.843201 279.303802,313.753845 
	C277.838104,310.122559 276.368469,306.481537 274.816833,302.486786 
M280.703888,309.819550 
	C281.025238,309.721863 281.346588,309.624146 281.667938,309.526459 
	C281.529114,309.171692 281.390259,308.816925 281.251434,308.462158 
	C280.940186,308.677826 280.628967,308.893524 280.703888,309.819550 
z"/>
<path fill="#68686A" opacity="1.000000" stroke="none" 
	d="
M134.213867,295.774139 
	C135.702927,296.760529 137.104965,297.360229 139.439987,298.358978 
	C135.522690,299.902618 133.746170,301.890259 133.999207,305.801178 
	C134.242432,309.560333 134.384109,312.637268 139.414017,312.816223 
	C135.868073,315.923462 132.790802,315.363556 131.620041,311.664490 
	C130.987411,309.665680 131.293640,307.388977 130.871124,305.299316 
	C130.408813,303.012817 129.594498,300.797455 128.742645,297.902069 
	C129.213913,297.200867 130.307770,295.460236 131.602097,293.884247 
	C131.695328,293.770721 133.251083,294.858307 134.213867,295.774139 
z"/>
<path fill="#5C5D60" opacity="1.000000" stroke="none" 
	d="
M479.741638,314.903809 
	C478.112793,313.230896 475.906158,311.649872 475.758942,309.895996 
	C475.262360,303.979523 475.421265,298.000366 475.524994,292.048553 
	C475.542999,291.017365 476.511719,290.002777 477.041290,288.980499 
	C477.620392,289.949249 478.648010,290.895020 478.699036,291.890808 
	C478.893555,295.685425 478.647583,299.501495 478.807465,303.299408 
	C478.952179,306.737854 477.563446,310.632324 481.239685,313.267426 
	C481.250671,313.275269 480.501617,314.343506 479.741638,314.903809 
z"/>
<path fill="#56585A" opacity="1.000000" stroke="none" 
	d="
M312.100891,299.031799 
	C312.098816,296.211365 311.955322,293.864777 312.172729,291.552185 
	C312.256317,290.663147 313.162018,289.851410 313.693085,289.004456 
	C314.246887,289.814789 315.250916,290.609222 315.280273,291.438141 
	C315.451050,296.265320 315.197754,301.112488 315.489624,305.928497 
	C315.650421,308.581848 316.597351,311.187531 317.401550,314.753296 
	C314.899597,315.145142 312.728302,314.232483 312.422028,310.507263 
	C312.122162,306.860474 312.194519,303.183136 312.100891,299.031799 
z"/>
<path fill="#00013C" opacity="1.000000" stroke="none" 
	d="
M470.528870,127.542664 
	C470.266266,127.965019 469.899750,127.976379 469.258057,128.004593 
	C465.624359,128.016190 462.265808,128.010956 458.143768,128.296692 
	C457.256897,130.401672 457.028564,132.215546 457.025970,134.029739 
	C456.994110,156.352112 456.995270,178.674530 456.987854,200.996933 
	C456.987854,200.996933 456.548218,200.990326 456.328613,200.979874 
	C455.996582,181.034653 455.879456,161.099930 455.775330,141.165115 
	C455.751251,136.556259 455.771759,131.947159 455.771759,127.131683 
	C460.968475,127.131683 465.696716,127.131683 470.528870,127.542664 
z"/>
<path fill="#002249" opacity="1.000000" stroke="none" 
	d="
M263.979248,135.466339 
	C264.062408,135.004333 264.535645,134.984482 264.772705,135.451874 
	C265.007080,158.716125 264.980927,181.513077 265.044678,204.309769 
	C265.049957,206.201508 265.663177,208.091522 265.993896,209.982346 
	C266.448639,209.980118 266.903351,209.977890 268.025513,209.975433 
	C269.129578,209.986465 269.566223,209.997696 269.998535,210.216278 
	C269.994141,210.423599 269.994110,210.838364 269.932098,211.040771 
	C269.870087,211.243179 269.912354,211.664444 269.912354,211.664444 
	C268.125488,211.747253 266.338623,211.830063 263.896057,211.943268 
	C263.896057,186.324738 263.896057,161.126541 263.979248,135.466339 
z"/>
<path fill="#5C5D60" opacity="1.000000" stroke="none" 
	d="
M243.224258,314.779358 
	C242.092621,313.829498 240.700928,313.023590 240.665741,312.162231 
	C240.363083,304.755829 240.278641,297.339508 240.260117,289.925812 
	C240.259262,289.584656 241.506592,289.240387 243.191299,288.373169 
	C243.191299,294.622467 242.978668,300.147247 243.290100,305.642365 
	C243.425262,308.027283 244.787582,310.321991 245.257645,312.723236 
	C245.373825,313.316650 244.183060,314.165955 243.224258,314.779358 
z"/>
<path fill="#00013C" opacity="1.000000" stroke="none" 
	d="
M551.158997,209.986237 
	C551.061279,210.315674 550.865051,210.568756 550.347900,210.847412 
	C550.051208,185.280060 549.976990,159.610809 550.212158,133.462982 
	C550.521606,132.984436 550.997803,133.005768 550.997803,133.005768 
	C551.001160,133.174545 551.004456,133.343338 551.007812,134.231369 
	C551.058289,159.962494 551.108643,184.974365 551.158997,209.986237 
z"/>
<path fill="#5C5D60" opacity="1.000000" stroke="none" 
	d="
M523.964844,313.398743 
	C521.483704,313.709106 519.002502,314.019470 516.245483,313.723267 
	C516.347778,312.398590 516.726013,311.680481 517.104248,310.962402 
	C522.636353,313.240601 524.868713,311.848053 525.000061,305.998413 
	C525.052063,303.682373 524.926331,301.357361 525.097595,299.052521 
	C525.140137,298.479034 525.938477,297.778503 526.552917,297.508453 
	C526.856750,297.374939 527.978760,298.095093 527.973389,298.416321 
	C527.883606,303.783112 527.676208,309.147949 527.451904,314.511444 
	C527.450073,314.556061 526.858215,314.576019 526.234863,314.104614 
	C525.713745,313.211334 525.499512,312.820892 525.285339,312.430481 
	C524.845215,312.753235 524.405029,313.075989 523.964844,313.398743 
z"/>
<path fill="#68686A" opacity="1.000000" stroke="none" 
	d="
M119.912827,308.162933 
	C119.908203,310.519257 119.908203,312.440613 119.908203,314.647583 
	C116.440346,313.111542 115.523926,302.854004 117.852074,297.110016 
	C119.335701,297.934570 120.790680,298.743225 121.869133,299.342621 
	C121.195656,302.236145 120.556549,304.982056 119.912827,308.162933 
z"/>
<path fill="#1E62AE" opacity="1.000000" stroke="none" 
	d="
M83.117126,213.088821 
	C84.480675,214.432419 86.750481,215.696304 86.788986,217.024841 
	C87.086769,227.299667 86.953125,237.586990 86.007019,247.877090 
	C86.007019,238.676575 85.817337,229.470337 86.093605,220.278137 
	C86.216583,216.186279 85.069954,214.713303 80.824265,214.903610 
	C73.514130,215.231293 66.178459,215.018356 58.854683,214.932205 
	C58.462860,214.927597 58.081902,213.998886 57.850883,213.231750 
	C61.035831,212.893692 64.065781,212.824265 67.823082,213.163498 
	C72.558792,213.673187 76.567154,213.774200 80.575508,213.875214 
	C81.380272,213.596497 82.185036,213.317780 83.117126,213.088821 
z"/>
<path fill="#606264" opacity="1.000000" stroke="none" 
	d="
M173.808289,314.442871 
	C172.798935,313.897064 171.619629,313.200134 171.579849,312.443268 
	C171.354691,308.160522 171.314148,303.861023 171.432053,299.573303 
	C171.455658,298.715576 172.437881,297.884216 172.978088,297.040680 
	C173.544128,297.871033 174.597488,298.702240 174.596100,299.531647 
	C174.587952,304.442657 174.335098,309.353302 173.808289,314.442871 
z"/>
<path fill="#68686A" opacity="1.000000" stroke="none" 
	d="
M203.655487,310.583588 
	C203.128952,312.259247 202.612717,313.493011 202.096497,314.726807 
	C201.476303,313.590668 200.398285,312.485107 200.320068,311.312836 
	C200.065567,307.498413 200.052368,303.653595 200.234848,299.834320 
	C200.280136,298.886414 201.414551,297.990570 202.048325,297.070801 
	C202.607849,297.931305 203.606628,298.770569 203.649445,299.656067 
	C203.818054,303.143372 203.686157,306.645233 203.655487,310.583588 
z"/>
<path fill="#606264" opacity="1.000000" stroke="none" 
	d="
M354.980011,301.268066 
	C355.604370,299.556549 356.236847,298.305939 356.869324,297.055359 
	C357.378601,298.248993 358.266541,299.424042 358.326202,300.639709 
	C358.505005,304.282776 358.493103,307.950104 358.263428,311.589539 
	C358.190948,312.738007 357.197174,313.828369 356.625061,314.945312 
	C356.079407,314.785583 355.533783,314.625824 354.988129,314.466095 
	C354.988129,310.220398 354.988129,305.974670 354.980011,301.268066 
z"/>
<path fill="#00013C" opacity="1.000000" stroke="none" 
	d="
M600.580322,146.287079 
	C600.967590,145.019760 601.254761,144.160782 601.770691,143.621902 
	C602.027649,165.941376 602.055908,187.940735 602.084106,209.940094 
	C601.850403,210.223099 601.616699,210.506104 601.131470,210.913651 
	C600.761902,193.417511 600.642029,175.796860 600.527222,158.176147 
	C600.502258,154.349304 600.495483,150.522339 600.580322,146.287079 
z"/>
<path fill="#56585A" opacity="1.000000" stroke="none" 
	d="
M552.257568,313.169922 
	C550.510437,315.532593 549.087646,315.751343 548.988708,312.681763 
	C548.845276,308.228790 548.933167,303.763947 549.090515,299.310089 
	C549.116638,298.571960 549.999573,297.864105 550.486511,297.142273 
	C551.103821,297.883575 552.228516,298.607452 552.254700,299.369080 
	C552.407593,303.821625 552.303345,308.282990 552.257568,313.169922 
z"/>
<path fill="#00013C" opacity="1.000000" stroke="none" 
	d="
M614.964600,143.009094 
	C615.176697,143.019409 615.388733,143.029724 615.918579,143.059326 
	C616.242798,165.410568 616.249146,187.742538 616.138062,210.528015 
	C615.724731,210.799652 615.428833,210.617767 615.045288,209.742706 
	C614.960022,187.036057 614.962341,165.022568 614.964600,143.009094 
z"/>
<path fill="#1D3757" opacity="1.000000" stroke="none" 
	d="
M270.002899,210.008942 
	C269.566223,209.997696 269.129578,209.986465 268.366394,209.964386 
	C269.764130,209.637100 271.486694,209.057495 273.212860,209.046417 
	C285.462799,208.967773 297.715057,208.896210 309.963104,209.068756 
	C313.954132,209.124969 316.934326,208.808914 316.139099,203.663452 
	C316.072418,203.231918 316.824799,202.673782 317.579559,202.086624 
	C318.077209,203.714554 318.191956,205.430328 317.986816,207.806549 
	C316.338348,209.036331 315.009796,209.605652 313.171631,210.130310 
	C298.442291,210.060089 284.222595,210.034515 270.002899,210.008942 
z"/>
<path fill="#00013C" opacity="1.000000" stroke="none" 
	d="
M280.460083,142.740326 
	C281.507050,142.235199 283.003448,141.136932 284.516876,141.112930 
	C294.395416,140.956268 304.277679,141.032379 314.984436,141.032379 
	C314.984436,138.354477 314.984436,136.124268 315.251953,133.445953 
	C315.694183,132.997421 315.868896,132.996994 316.043579,132.996567 
	C316.178253,135.941696 316.312927,138.886810 316.484741,142.644028 
	C304.331757,142.644028 292.624573,142.644028 280.460083,142.740326 
z"/>
<path fill="#386AB0" opacity="1.000000" stroke="none" 
	d="
M54.159962,171.387695 
	C54.646523,170.983124 55.005306,171.036697 55.626835,171.160553 
	C55.897190,179.167938 55.949039,187.105438 55.874840,195.041763 
	C55.860119,196.616226 55.361862,198.186142 54.737324,199.913818 
	C54.269440,190.661621 54.150814,181.253738 54.159962,171.387695 
z"/>
<path fill="#00013C" opacity="1.000000" stroke="none" 
	d="
M269.998535,210.216278 
	C284.222595,210.034515 298.442291,210.060089 312.979584,210.357147 
	C313.164246,210.981796 313.031311,211.334961 312.898376,211.688141 
	C310.895233,211.677094 308.892090,211.666061 306.119629,211.372406 
	C297.886261,211.246582 290.422211,211.403381 282.958191,211.560181 
	C280.610046,211.595322 278.261932,211.630447 275.186493,211.391937 
	C272.970825,211.024979 271.482483,210.931671 269.994110,210.838364 
	C269.994110,210.838364 269.994141,210.423599 269.998535,210.216278 
z"/>
<path fill="#002249" opacity="1.000000" stroke="none" 
	d="
M575.003052,133.464218 
	C575.616028,135.432526 576.052734,137.823593 576.631531,140.993042 
	C582.513977,140.993042 588.606873,140.917252 594.695740,141.041946 
	C596.392456,141.076691 598.077148,141.704254 599.906372,142.432327 
	C593.725586,142.734085 587.405884,142.650375 581.085876,142.596344 
	C574.634399,142.541199 574.632935,142.553955 574.748718,135.881104 
	C574.760254,135.216141 574.800049,134.551682 575.003052,133.464218 
z"/>
<path fill="#56585A" opacity="1.000000" stroke="none" 
	d="
M155.358780,311.842468 
	C154.680634,312.102570 154.002487,312.362671 153.109604,312.922394 
	C147.750061,307.233337 148.670609,301.140900 155.650970,297.247559 
	C155.993378,297.898712 155.993912,298.546082 155.709137,299.751556 
	C151.641922,304.132721 152.450638,307.981689 155.358780,311.842468 
z"/>
<path fill="#002249" opacity="1.000000" stroke="none" 
	d="
M280.087524,200.481415 
	C279.476471,200.222748 278.137207,199.522537 278.124451,198.798935 
	C277.999573,191.713913 278.072601,184.624619 278.183655,177.538025 
	C278.190765,177.085449 278.980042,176.645142 279.817322,176.136139 
	C280.144470,184.058441 280.059662,192.043716 280.087524,200.481415 
z"/>
<path fill="#606264" opacity="1.000000" stroke="none" 
	d="
M432.967377,299.938171 
	C432.091553,300.121124 431.440582,300.059174 430.391907,299.570801 
	C429.238068,297.157928 428.481995,295.171478 427.725952,293.185059 
	C428.122070,292.686615 428.518219,292.188171 428.950195,291.360840 
	C433.942444,292.192932 434.460999,295.509125 432.967377,299.938171 
z"/>
<path fill="#606264" opacity="1.000000" stroke="none" 
	d="
M427.218323,307.278442 
	C428.054779,306.935455 428.958313,306.930908 430.309875,306.863525 
	C432.144226,309.197021 433.530518,311.593353 434.990845,314.117615 
	C431.598846,314.394073 431.598846,314.394073 427.218323,307.278442 
z"/>
<path fill="#444547" opacity="1.000000" stroke="none" 
	d="
M517.008423,310.579315 
	C516.726013,311.680481 516.347778,312.398590 515.963989,313.442383 
	C511.587830,308.869598 514.417542,303.172638 513.393127,297.903107 
	C514.123108,297.764526 514.853088,297.625946 515.583069,297.487396 
	C515.891968,299.420502 516.289551,301.344635 516.486694,303.289062 
	C516.719177,305.582275 516.778198,307.893097 517.008423,310.579315 
z"/>
<path fill="#56585A" opacity="1.000000" stroke="none" 
	d="
M69.481285,297.612854 
	C70.521996,298.587677 71.076927,299.698456 71.980362,300.973999 
	C71.832375,305.596466 71.335876,310.054169 70.839371,314.511902 
	C70.355003,314.505920 69.870636,314.499939 69.386269,314.493958 
	C68.080376,309.003174 68.231262,303.399719 69.481285,297.612854 
z"/>
<path fill="#444547" opacity="1.000000" stroke="none" 
	d="
M635.582092,303.966370 
	C635.764221,301.423767 635.947815,299.385162 636.131409,297.346558 
	C636.699768,297.391907 637.268066,297.437225 637.836426,297.482574 
	C637.836426,303.101715 637.836426,308.720856 637.836426,314.339996 
	C634.529663,311.553040 636.025574,307.813416 635.582092,303.966370 
z"/>
<path fill="#5C5D60" opacity="1.000000" stroke="none" 
	d="
M283.402527,211.723541 
	C290.422211,211.403381 297.886261,211.246582 305.692780,211.321686 
	C298.639160,211.664703 291.243011,211.775818 283.402527,211.723541 
z"/>
<path fill="#5C5D60" opacity="1.000000" stroke="none" 
	d="
M313.272766,211.845596 
	C313.031311,211.334961 313.164246,210.981796 313.489197,210.401794 
	C315.009796,209.605652 316.338348,209.036331 317.925720,208.235321 
	C319.396271,212.427414 316.592010,212.295013 313.272766,211.845596 
z"/>
<path fill="#045AA8" opacity="1.000000" stroke="none" 
	d="
M80.392067,213.427338 
	C76.567154,213.774200 72.558792,213.673187 68.267853,213.259674 
	C72.059723,212.957932 76.134171,212.968704 80.392067,213.427338 
z"/>
<path fill="#386AB0" opacity="1.000000" stroke="none" 
	d="
M54.602306,102.141541 
	C54.889538,104.390915 54.830254,106.871094 54.541389,109.671776 
	C54.293133,107.452309 54.274464,104.912323 54.602306,102.141541 
z"/>
<path fill="#5C5D60" opacity="1.000000" stroke="none" 
	d="
M269.932098,211.040771 
	C271.482483,210.931671 272.970825,211.024979 274.748444,211.346176 
	C273.606323,211.692017 272.174957,211.809967 270.327972,211.796173 
	C269.912354,211.664444 269.870087,211.243179 269.932098,211.040771 
z"/>
<path fill="#118167" opacity="1.000000" stroke="none" 
	d="
M174.005402,226.366989 
	C174.552856,226.073700 175.096542,226.140686 176.022964,226.363022 
	C175.774246,227.236145 175.142807,227.953934 174.239868,228.780304 
	C173.979462,228.168350 173.990555,227.447800 174.005402,226.366989 
z"/>
<path fill="#386AB0" opacity="1.000000" stroke="none" 
	d="
M66.610466,101.009109 
	C65.830673,101.281532 64.652702,101.469414 63.235386,101.444885 
	C64.068123,101.129845 65.140205,101.027214 66.610466,101.009109 
z"/>
<path fill="#1D3757" opacity="1.000000" stroke="none" 
	d="
M556.603760,131.962646 
	C555.810913,132.233322 554.627502,132.400131 553.226685,132.321579 
	C554.077271,132.003738 555.145203,131.931274 556.603760,131.962646 
z"/>
<path fill="#68686A" opacity="1.000000" stroke="none" 
	d="
M524.324951,313.425323 
	C524.405029,313.075989 524.845215,312.753235 525.285339,312.430481 
	C525.499512,312.820892 525.713745,313.211334 525.926025,313.890747 
	C525.511047,313.937134 525.098022,313.694519 524.324951,313.425323 
z"/>
<path fill="#386AB0" opacity="1.000000" stroke="none" 
	d="
M58.666805,101.456711 
	C58.361088,101.703308 57.774055,101.818665 56.896370,101.823135 
	C57.198971,101.583328 57.792229,101.454399 58.666805,101.456711 
z"/>
<path fill="#0A61AF" opacity="1.000000" stroke="none" 
	d="
M97.257706,132.892975 
	C97.263512,132.717880 97.516930,132.594086 97.869324,132.605515 
	C97.813972,132.808609 97.659645,132.876465 97.257706,132.892975 
z"/>
<path fill="#002249" opacity="1.000000" stroke="none" 
	d="
M316.043091,132.694946 
	C315.868896,132.996994 315.694183,132.997421 315.257141,132.995514 
	C314.994873,132.993179 314.993958,132.497116 314.996857,132.249100 
	C315.347382,132.131836 315.694977,132.262589 316.043091,132.694946 
z"/>
<path fill="#273A5E" opacity="1.000000" stroke="none" 
	d="
M550.997314,132.767975 
	C550.997803,133.005768 550.521606,132.984436 550.283813,133.000122 
	C550.164246,132.669632 550.282532,132.323456 550.702881,132.015991 
	C551.004883,132.054688 550.996887,132.530197 550.997314,132.767975 
z"/>
<path fill="#118167" opacity="1.000000" stroke="none" 
	d="
M176.691635,226.318237 
	C176.583023,226.074326 176.700943,225.734344 177.116455,225.395233 
	C177.366028,225.741882 177.200729,226.017227 176.691635,226.318237 
z"/>
<path fill="#026774" opacity="1.000000" stroke="none" 
	d="
M130.657349,223.155075 
	C131.011749,223.245895 131.133499,223.508011 131.255264,223.770142 
	C131.102341,223.823685 130.949417,223.877228 130.539886,223.908707 
	C130.330414,223.699875 130.377563,223.513123 130.657349,223.155075 
z"/>
<path fill="#386AB0" opacity="1.000000" stroke="none" 
	d="
M54.293514,204.216980 
	C54.649529,204.057709 54.828777,204.223709 54.967690,204.664261 
	C54.741302,204.715775 54.471100,204.583588 54.293514,204.216980 
z"/>
<path fill="#118167" opacity="1.000000" stroke="none" 
	d="
M206.446564,196.350998 
	C206.139343,196.259964 206.105286,196.010117 206.038757,195.383575 
	C206.240067,195.024460 206.473862,195.042068 207.056458,195.106018 
	C207.176712,195.498978 206.948212,195.845581 206.446564,196.350998 
z"/>
<path fill="#208C58" opacity="1.000000" stroke="none" 
	d="
M219.418243,183.158844 
	C219.336594,182.935486 219.515900,182.615540 219.969299,182.215836 
	C220.055313,182.444794 219.867249,182.753510 219.418243,183.158844 
z"/>
<path fill="#208C58" opacity="1.000000" stroke="none" 
	d="
M220.398773,182.138870 
	C220.330032,181.920959 220.528351,181.598373 221.003906,181.183807 
	C221.076050,181.405945 220.870956,181.720078 220.398773,182.138870 
z"/>
<path fill="#386AB0" opacity="1.000000" stroke="none" 
	d="
M54.238052,134.236603 
	C54.480904,134.152313 54.643131,134.316284 54.745262,134.511688 
	C54.782471,134.582855 54.676575,134.728851 54.482452,134.932312 
	C54.263844,134.848373 54.198742,134.672836 54.238052,134.236603 
z"/>
<path fill="#379D52" opacity="1.000000" stroke="none" 
	d="
M165.044434,160.656097 
	C164.727081,160.765045 164.448151,160.537033 164.069229,160.052246 
	C164.340439,159.970016 164.711639,160.144577 165.044434,160.656097 
z"/>
<path fill="#379D52" opacity="1.000000" stroke="none" 
	d="
M134.735352,160.226669 
	C135.080856,160.203064 135.259506,160.416473 135.404648,160.650650 
	C135.416214,160.669312 135.196167,160.831528 134.867432,160.993713 
	C134.620682,160.863266 134.590286,160.666138 134.735352,160.226669 
z"/>
<path fill="#014DA6" opacity="1.000000" stroke="none" 
	d="
M122.416641,103.551422 
	C122.203896,103.713737 121.806213,103.609634 121.208542,103.264534 
	C121.416267,103.110687 121.823990,103.197838 122.416641,103.551422 
z"/>
<path fill="#0644A1" opacity="1.000000" stroke="none" 
	d="
M126.944397,107.912575 
	C126.771706,108.032166 126.547493,107.977837 126.446930,107.747833 
	C126.570572,107.572144 126.892883,107.738655 126.944397,107.912575 
z"/>
<path fill="#F8F9FB" opacity="1.000000" stroke="none" 
	d="
M400.519043,192.062744 
	C400.562714,186.203873 400.041138,180.641571 401.001190,175.347961 
	C402.209839,168.683273 407.824707,164.525238 414.069641,164.265442 
	C420.151733,164.012390 424.895813,167.610352 427.213287,174.442245 
	C429.536499,181.291077 429.434692,188.195084 427.000641,194.984680 
	C424.733063,201.309967 420.793427,204.276474 414.923920,204.434967 
	C408.446686,204.609863 404.077148,201.667664 401.488892,195.338806 
	C401.112976,194.419556 400.899963,193.433685 400.519043,192.062744 
z"/>
<path fill="#1D3757" opacity="1.000000" stroke="none" 
	d="
M265.996643,209.515488 
	C265.663177,208.091522 265.049957,206.201508 265.044678,204.309769 
	C264.980927,181.513077 265.007080,158.716125 265.009491,135.447937 
	C265.039886,134.813766 265.015900,134.594238 265.113159,134.500443 
	C265.288330,134.331512 265.536163,134.237946 265.753632,134.112885 
	C265.835358,135.560272 265.987366,137.007599 265.988312,138.455017 
	C266.003326,161.986221 265.999176,185.517426 265.996643,209.515488 
z"/>
<path fill="#00013C" opacity="1.000000" stroke="none" 
	d="
M310.337219,165.855011 
	C308.671082,166.214447 306.962708,166.906021 305.243896,166.932861 
	C297.518616,167.053558 289.790375,166.985474 282.066284,166.002075 
	C291.146759,166.002075 300.227203,166.002075 309.787231,165.889069 
	C310.266785,165.776047 310.290161,165.881119 310.337219,165.855011 
z"/>
<path fill="#1D3757" opacity="1.000000" stroke="none" 
	d="
M291.832397,202.006714 
	C294.104309,202.006714 295.914093,202.006714 297.723907,202.006714 
	C297.722443,202.223587 297.720978,202.440445 297.719543,202.657318 
	C292.167908,202.657318 286.616272,202.657318 281.064636,202.657318 
	C281.056793,202.440445 281.048981,202.223587 281.041138,202.006714 
	C284.484192,202.006714 287.927246,202.006714 291.832397,202.006714 
z"/>
<path fill="#1D3757" opacity="1.000000" stroke="none" 
	d="
M311.363098,202.994141 
	C309.384552,202.998337 307.775909,202.998337 306.167297,202.998337 
	C306.158875,202.681610 306.150452,202.364883 306.142029,202.048157 
	C308.116577,202.048157 310.091095,202.045914 312.065643,202.052444 
	C312.222229,202.052963 312.378601,202.114197 312.535095,202.147217 
	C312.267731,202.428131 312.000397,202.709030 311.363098,202.994141 
z"/>
<path fill="#1E62AE" opacity="1.000000" stroke="none" 
	d="
M87.002548,202.539612 
	C86.668968,201.284775 86.051636,199.561508 86.044342,197.835678 
	C85.971214,180.537384 85.998367,163.238678 85.990356,145.471863 
	C85.983437,142.050827 85.983437,139.097977 85.983437,136.145142 
	C86.322929,136.149139 86.662430,136.153152 87.001923,136.157150 
	C87.001923,158.128098 87.001923,180.099030 87.002548,202.539612 
z"/>
<path fill="#1D3757" opacity="1.000000" stroke="none" 
	d="
M614.678345,143.309296 
	C614.962341,165.022568 614.960022,187.036057 614.913330,209.514481 
	C612.261902,209.979431 609.654907,209.979431 607.047913,209.979431 
	C607.041626,209.735519 607.035339,209.491608 607.028992,209.247681 
	C609.100586,209.068939 611.172119,208.890182 613.745544,208.668121 
	C613.835693,206.789124 613.992065,205.025146 613.993835,203.261002 
	C614.011841,185.181381 613.994019,167.101746 614.021851,149.022156 
	C614.024597,147.217743 614.262939,145.413696 614.678345,143.309296 
z"/>
<path fill="#1D3757" opacity="1.000000" stroke="none" 
	d="
M602.364258,209.643204 
	C602.055908,187.940735 602.027649,165.941376 602.000793,143.474060 
	C602.333191,144.230103 602.949158,145.453293 602.952698,146.678253 
	C603.011536,166.921402 602.996704,187.164749 602.977966,207.408035 
	C602.977417,208.054230 602.760376,208.700226 602.364258,209.643204 
z"/>
<path fill="#1D3757" opacity="1.000000" stroke="none" 
	d="
M457.286255,200.704147 
	C456.995270,178.674530 456.994110,156.352112 457.025970,134.029739 
	C457.028564,132.215546 457.256897,130.401672 457.685272,128.304718 
	C457.992249,150.508545 458.002838,172.995331 457.978516,195.482071 
	C457.976746,197.125305 457.721863,198.768265 457.286255,200.704147 
z"/>
<path fill="#1D3757" opacity="1.000000" stroke="none" 
	d="
M551.344849,209.870483 
	C551.108643,184.974365 551.058289,159.962494 551.021057,134.484253 
	C551.356201,135.748138 551.953613,137.477661 551.958313,139.208771 
	C552.020691,162.165558 551.999756,185.122559 551.998779,208.550629 
	C551.913452,209.311584 551.757690,209.555908 551.344849,209.870483 
z"/>
<path fill="#1D3757" opacity="1.000000" stroke="none" 
	d="
M563.521484,209.037933 
	C561.488098,209.237534 559.015320,209.416992 556.271423,209.320648 
	C558.360901,209.035812 560.721497,209.026794 563.521484,209.037933 
z"/>
<path fill="#EEEFF0" opacity="1.000000" stroke="none" 
	d="
M182.282654,307.485382 
	C182.546478,305.345459 182.360687,303.142120 183.371475,301.975861 
	C184.451752,300.729462 186.749405,299.780609 188.348236,299.988647 
	C189.557709,300.145996 190.683685,302.223297 191.494720,303.646790 
	C191.925873,304.403503 191.915497,305.714691 191.566849,306.551636 
	C190.769699,308.465057 190.062119,311.231445 188.561615,311.867920 
	C185.354568,313.228394 183.456329,310.775177 182.282654,307.485382 
z"/>
<path fill="#F4F4F5" opacity="1.000000" stroke="none" 
	d="
M502.526733,311.974548 
	C500.405090,311.270905 497.314240,310.564423 497.252899,309.653839 
	C497.055786,306.728088 497.114502,303.107178 498.689301,300.913788 
	C500.602875,298.248474 505.174133,300.162018 505.772430,303.651703 
	C506.308350,306.777710 506.520874,310.048920 502.526733,311.974548 
z"/>
<path fill="#F4F4F5" opacity="1.000000" stroke="none" 
	d="
M688.007324,309.864105 
	C687.321167,310.217529 686.563538,310.528046 685.901428,310.978912 
	C683.294373,312.754120 679.839600,313.591980 678.590088,310.604523 
	C677.482605,307.956696 678.463867,304.263458 679.147095,301.169464 
	C679.301575,300.469727 682.307861,299.653534 683.516907,300.127350 
	C684.933105,300.682312 686.152771,302.436920 686.843689,303.951324 
	C687.558167,305.517120 687.536072,307.418976 687.891235,309.560669 
	C687.946228,309.947479 687.979614,309.885712 688.007324,309.864105 
z"/>
<path fill="#EEEFF0" opacity="1.000000" stroke="none" 
	d="
M224.129669,310.828125 
	C224.300034,305.374298 227.886047,307.050293 230.723312,306.798370 
	C230.699875,312.170441 229.130905,313.161621 224.129669,310.828125 
z"/>
<path fill="#F4F4F5" opacity="1.000000" stroke="none" 
	d="
M370.234497,312.276672 
	C369.247009,311.907349 368.219452,311.682983 368.159088,311.304474 
	C367.675873,308.273438 366.844086,305.128784 367.308411,302.208008 
	C367.470093,301.191040 371.803589,299.540375 372.770355,300.229492 
	C374.554871,301.501434 375.987396,304.204407 376.247253,306.462921 
	C376.657196,310.025970 374.600677,312.369080 370.234497,312.276672 
z"/>
<path fill="#EEEFF0" opacity="1.000000" stroke="none" 
	d="
M703.616211,306.846466 
	C703.786499,308.249146 704.089172,309.960052 703.496887,310.366455 
	C702.150940,311.289978 700.388000,311.818420 698.744629,311.971527 
	C698.223206,312.020111 696.857849,309.851288 697.054871,309.592285 
	C697.934143,308.436981 699.138062,307.416351 700.427979,306.727936 
	C701.206970,306.312164 702.358337,306.593994 703.616211,306.846466 
z"/>
<path fill="#EEEFF0" opacity="1.000000" stroke="none" 
	d="
M448.478149,304.016479 
	C445.921021,304.050659 443.777191,304.050659 441.330963,304.050659 
	C441.960999,300.332062 444.050903,299.005280 446.980011,299.969543 
	C447.952118,300.289551 448.272858,302.588226 448.478149,304.016479 
z"/>
<path fill="#EEEFF0" opacity="1.000000" stroke="none" 
	d="
M101.267929,311.306580 
	C100.457886,305.474304 104.859215,307.483917 107.347702,306.117615 
	C108.041229,311.839722 106.552223,313.062744 101.267929,311.306580 
z"/>
<path fill="#EEEFF0" opacity="1.000000" stroke="none" 
	d="
M583.463379,299.810486 
	C586.922241,299.060883 588.306152,300.654144 589.142212,303.811584 
	C586.201416,303.811584 583.659912,303.811584 580.074219,303.811584 
	C581.337891,302.198883 582.220825,301.072021 583.463379,299.810486 
z"/>
<path fill="#EEEFF0" opacity="1.000000" stroke="none" 
	d="
M465.340820,306.648804 
	C465.674133,308.211731 466.174316,310.572510 465.470306,311.014313 
	C464.162292,311.835114 462.143188,311.684692 460.440857,311.584961 
	C460.080017,311.563812 459.419891,309.365662 459.554047,309.286743 
	C461.288239,308.266998 463.141296,307.449432 465.340820,306.648804 
z"/>
<path fill="#F4F4F5" opacity="1.000000" stroke="none" 
	d="
M268.168915,303.203491 
	C265.699493,304.230011 263.142853,304.830750 260.586182,305.431519 
	C260.243073,304.916992 259.899933,304.402435 259.556824,303.887909 
	C260.782288,302.529053 261.920746,300.189270 263.256287,300.070801 
	C264.772736,299.936249 266.465546,301.788971 268.168915,303.203491 
z"/>
<path fill="#EEEFF0" opacity="1.000000" stroke="none" 
	d="
M294.448425,308.279480 
	C294.292877,307.079041 294.162842,306.250549 294.206207,305.431213 
	C294.368683,302.361481 295.361176,299.800537 298.884247,299.454865 
	C302.368835,299.113007 304.078522,301.233337 304.596802,304.355621 
	C305.145966,307.663849 304.774353,310.824921 301.059540,312.139404 
	C297.800995,313.292450 295.631500,311.857086 294.448425,308.279480 
z"/>
<path fill="#EEEFF0" opacity="1.000000" stroke="none" 
	d="
M155.752884,311.903748 
	C152.450638,307.981689 151.641922,304.132721 155.706665,300.075287 
	C161.705399,299.670624 162.645721,300.559662 162.623627,306.113098 
	C162.603165,311.253662 161.487396,312.261810 155.752884,311.903748 
z"/>
<path fill="#EEEFF0" opacity="1.000000" stroke="none" 
	d="
M427.299988,293.168152 
	C428.481995,295.171478 429.238068,297.157928 429.903870,299.523315 
	C427.167450,300.792114 424.521362,301.681915 421.285065,302.770233 
	C421.285065,298.901886 421.285065,296.194916 421.285065,293.151276 
	C423.316315,293.151276 425.095154,293.151276 427.299988,293.168152 
z"/>
<path fill="#FCFCFD" opacity="1.000000" stroke="none" 
	d="
M280.510803,309.464355 
	C280.628967,308.893524 280.940186,308.677826 281.251434,308.462158 
	C281.390259,308.816925 281.529114,309.171692 281.667938,309.526459 
	C281.346588,309.624146 281.025238,309.721863 280.510803,309.464355 
z"/>
</svg>